<?xml version="1.0" encoding="UTF-8"?>
<svg width="240" height="200" viewBox="0 0 240 200" fill="none" xmlns="http://www.w3.org/2000/svg">
  <path d="M40 80C40 71.1634 47.1634 64 56 64H184C192.837 64 200 71.1634 200 80V120C200 128.837 192.837 136 184 136H56C47.1634 136 40 128.837 40 120V80Z" fill="#E3F2FD"/>
  <path d="M56 72H184C188.418 72 192 75.5817 192 80V120C192 124.418 188.418 128 184 128H56C51.5817 128 48 124.418 48 120V80C48 75.5817 51.5817 72 56 72Z" fill="white"/>
  <rect x="64" y="88" width="112" height="8" rx="4" fill="#90CAF9"/>
  <rect x="64" y="104" width="80" height="8" rx="4" fill="#90CAF9"/>
  <circle cx="120" cy="100" r="40" fill="#2196F3" fill-opacity="0.1"/>
  <path d="M120 120C131.046 120 140 111.046 140 100C140 88.9543 131.046 80 120 80C108.954 80 100 88.9543 100 100C100 111.046 108.954 120 120 120Z" fill="#2196F3"/>
  <circle cx="120" cy="100" r="8" fill="white"/>
</svg> 