<?xml version="1.0" encoding="UTF-8"?>
<svg width="240" height="200" viewBox="0 0 240 200" fill="none" xmlns="http://www.w3.org/2000/svg">
  <rect x="40" y="40" width="160" height="120" rx="8" fill="#E3F2FD"/>
  <rect x="60" y="60" width="120" height="10" rx="2" fill="#90CAF9"/>
  <rect x="60" y="80" width="80" height="10" rx="2" fill="#90CAF9"/>
  <path d="M120 140C142.091 140 160 122.091 160 100C160 77.9086 142.091 60 120 60C97.9086 60 80 77.9086 80 100C80 122.091 97.9086 140 120 140Z" fill="#2196F3" fill-opacity="0.2"/>
  <path d="M120 120C131.046 120 140 111.046 140 100C140 88.9543 131.046 80 120 80C108.954 80 100 88.9543 100 100C100 111.046 108.954 120 120 120Z" fill="#2196F3"/>
  <path d="M120 110C125.523 110 130 105.523 130 100C130 94.4772 125.523 90 120 90C114.477 90 110 94.4772 110 100C110 105.523 114.477 110 120 110Z" fill="white"/>
</svg> 